<svg width="84" height="82" viewBox="0 0 84 82" fill="none" xmlns="http://www.w3.org/2000/svg">
<path d="M42 80.5C64.3306 80.5 82.5 62.8517 82.5 41C82.5 19.1483 64.3306 1.5 42 1.5C19.6694 1.5 1.5 19.1483 1.5 41C1.5 62.8517 19.6694 80.5 42 80.5Z" stroke="#C4C4C4" stroke-opacity="0.5" stroke-width="3"/>
<path d="M61 43.4551C61 53.0952 53.6278 55 42 55C30.3722 55 23 53.0952 23 43.4551C23 33.8149 30.3722 26 42 26C53.6278 26 61 33.8149 61 43.4551Z" fill="#C4C4C4"/>
<path d="M23.7717 23.2451C30.5574 25.1086 32.0146 27.4005 34.7942 31.3923L25.3161 36.8645C22.4373 32.3101 21.4934 29.5313 23.7717 23.2451Z" fill="#C4C4C4"/>
<path d="M62.0551 23.7549C63.8341 30.5633 62.5779 32.9712 60.5107 37.3744L51.0326 31.9022C53.5374 27.1319 55.4719 24.925 62.0551 23.7549Z" fill="#C4C4C4"/>
<line x1="35.1354" y1="46.4813" x2="3.13537" y2="55.4813" stroke="#C4C4C4"/>
<line x1="35" y1="45.5" x2="3" y2="45.5" stroke="#C4C4C4"/>
<line x1="51.1068" y1="47.5115" x2="83.1068" y2="54.5116" stroke="#C4C4C4"/>
<line x1="51" y1="46.5" x2="83" y2="46.5" stroke="#C4C4C4"/>
</svg>
